<svg width="24" height="24" viewBox="0 0 24 24" fill="none" xmlns="http://www.w3.org/2000/svg">
<path d="M3.22857 12.1267L3.27444 12.22C3.45794 12.5875 3.97976 12.5875 4.16326 12.22L4.20913 12.1267C4.39836 11.7475 4.70228 11.4442 5.075 11.2458L5.16675 11.1992C5.52801 11.0125 5.52801 10.4817 5.16675 10.295L5.075 10.2483C4.70228 10.0558 4.40409 9.74667 4.20913 9.3675L4.16326 9.27417C3.97976 8.90667 3.45794 8.90667 3.27444 9.27417L3.22857 9.3675C3.03934 9.74667 2.73542 10.05 2.36269 10.2483L2.27094 10.295C1.90969 10.4817 1.90969 11.0125 2.27094 11.1992L2.36269 11.2458C2.73542 11.4383 3.0336 11.7475 3.22857 12.1267Z" fill="black"/>
<path d="M4.2206 6.03667L4.39263 6.12417C5.075 6.48 5.62549 7.04 5.97529 7.73417L6.0613 7.90917C6.39962 8.58583 7.35151 8.58583 7.68983 7.90917L7.77585 7.73417C8.12564 7.04 8.67613 6.48 9.35851 6.12417L9.53053 6.03667C10.1957 5.6925 10.1957 4.72417 9.53053 4.38L9.35851 4.2925C8.67613 3.93667 8.12564 3.37667 7.77585 2.6825L7.68983 2.5075C7.35151 1.83083 6.39962 1.83083 6.0613 2.5075L5.97529 2.6825C5.62549 3.37667 5.075 3.93667 4.39263 4.2925L4.2206 4.38C3.55542 4.72417 3.55542 5.6925 4.2206 6.03667Z" fill="black"/>
<path d="M20.4257 18.9633L20.2536 18.8758C19.5712 18.52 19.0208 17.96 18.671 17.2658L18.585 17.0908C18.2466 16.4142 17.2947 16.4142 16.9564 17.0908L16.8704 17.2658C16.5206 17.96 15.9701 18.52 15.2877 18.8758L15.1157 18.9633C14.4505 19.3075 14.4505 20.2758 15.1157 20.62L15.2877 20.7075C15.9701 21.0633 16.5206 21.6233 16.8704 22.3175L16.9564 22.4925C17.2947 23.1692 18.2466 23.1692 18.585 22.4925L18.671 22.3175C19.0208 21.6233 19.5712 21.0633 20.2536 20.7075L20.4257 20.62C21.0908 20.2758 21.0908 19.3075 20.4257 18.9633Z" fill="black"/>
<path d="M21.4464 8.69667L20.8041 7.87417L21.1711 6.85333C21.5209 5.885 21.2915 4.82917 20.5747 4.1C19.858 3.37083 18.8201 3.1375 17.8682 3.49333L16.8647 3.86667L16.0561 3.21333C15.2533 2.56583 14.1868 2.455 13.275 2.93333C12.3633 3.41167 11.83 4.35083 11.8759 5.395L11.9217 6.39833L11.0788 6.96417C10.2301 7.53583 9.80005 8.5275 9.95487 9.54833C10.0065 9.89833 10.1269 10.2192 10.2989 10.505L3.02213 18.1583C2.03011 19.2025 2.04157 20.8883 3.05081 21.915C3.56116 22.4342 4.2378 22.6967 4.91444 22.6967C5.59109 22.6967 6.23906 22.4458 6.74368 21.95L14.267 14.5475C14.548 14.7225 14.8634 14.845 15.2075 14.8975C15.3451 14.9208 15.477 14.9267 15.6089 14.9267C16.4633 14.9267 17.2603 14.495 17.7477 13.7483L18.304 12.8908L19.2903 12.9375C20.3167 12.9958 21.2399 12.4417 21.7101 11.5142C22.1803 10.5867 22.0714 9.50167 21.4349 8.685L21.4464 8.69667ZM10.5168 12.8033L11.6407 11.6192C11.6924 11.6367 11.744 11.66 11.7956 11.6775L12.8335 11.9808L13.1317 13.0367C13.1489 13.0892 13.1718 13.1417 13.189 13.1942L11.4171 14.9383L10.5168 12.8092V12.8033ZM10.0925 16.2333L8.5213 17.7792L7.6841 15.7842L9.22662 14.1625L10.0982 16.2333H10.0925ZM5.55668 20.6958C5.20116 21.0458 4.622 21.04 4.27221 20.6842C3.92242 20.3283 3.91668 19.745 4.26074 19.3775L6.37668 17.1492L7.19095 19.08L5.55095 20.69L5.55668 20.6958ZM20.1906 10.7267C20.1332 10.8433 19.8924 11.2225 19.3878 11.1992L18.3556 11.1467C17.7822 11.1175 17.2259 11.4033 16.9048 11.8933L16.3199 12.7917C16.0389 13.2233 15.6031 13.1942 15.477 13.1708C15.3508 13.1533 14.9265 13.0483 14.7831 12.5525L14.4735 11.4558C14.3187 10.8958 13.8943 10.47 13.3496 10.3125L12.2715 9.9975C11.7841 9.8575 11.6809 9.42583 11.6637 9.29167C11.6465 9.1575 11.6121 8.72 12.0364 8.43417L12.9195 7.83917C13.4012 7.51833 13.6821 6.9525 13.6535 6.36333L13.6019 5.31333C13.5789 4.79417 13.9517 4.555 14.0663 4.49667C14.1294 4.46167 14.2785 4.3975 14.4677 4.3975C14.6226 4.3975 14.8061 4.44417 14.9896 4.59L15.8325 5.2725C16.274 5.62833 16.8819 5.73333 17.4152 5.535L18.4588 5.14417C18.9347 4.96917 19.2673 5.255 19.3591 5.34833C19.4508 5.44167 19.7318 5.78 19.5598 6.26417L19.1756 7.32583C18.9806 7.86833 19.0781 8.48667 19.4336 8.93583L20.1045 9.79333C20.4257 10.2017 20.2536 10.6158 20.1963 10.7325L20.1906 10.7267Z" fill="black"/>
</svg>
