<svg width="20" height="16" viewBox="0 0 20 16" fill="none" xmlns="http://www.w3.org/2000/svg">
<path d="M0.932617 7.75C0.932617 7.5026 1.03353 7.28451 1.23535 7.0957L7.7002 0.640625C7.80436 0.536458 7.90853 0.461589 8.0127 0.416016C8.12337 0.370443 8.2373 0.347656 8.35449 0.347656C8.59538 0.347656 8.7972 0.429036 8.95996 0.591797C9.12923 0.748047 9.21387 0.946615 9.21387 1.1875C9.21387 1.30469 9.19108 1.41862 9.14551 1.5293C9.10645 1.63346 9.04785 1.72461 8.96973 1.80273L6.78223 4.0293L2.91504 7.56445L2.70996 7.07617L5.85449 6.88086H18.208C18.4619 6.88086 18.667 6.96224 18.8232 7.125C18.986 7.28776 19.0674 7.49609 19.0674 7.75C19.0674 8.00391 18.986 8.21224 18.8232 8.375C18.667 8.53776 18.4619 8.61914 18.208 8.61914H5.85449L2.70996 8.42383L2.91504 7.94531L6.78223 11.4707L8.96973 13.6973C9.04785 13.7754 9.10645 13.8698 9.14551 13.9805C9.19108 14.0846 9.21387 14.1953 9.21387 14.3125C9.21387 14.5534 9.12923 14.752 8.95996 14.9082C8.7972 15.071 8.59538 15.1523 8.35449 15.1523C8.12012 15.1523 7.90853 15.0612 7.71973 14.8789L1.23535 8.4043C1.03353 8.21549 0.932617 7.9974 0.932617 7.75Z" fill="black"/>
</svg>
