<svg width="24" height="24" viewBox="0 0 24 24" fill="none" xmlns="http://www.w3.org/2000/svg">
<path fill-rule="evenodd" clip-rule="evenodd" d="M24 12C24 18.6274 18.6274 24 12 24C10.1734 24 8.44214 23.5919 6.8924 22.8619C6.77405 22.9003 6.64542 22.9214 6.50807 22.9214H2.29161C1.62142 22.9214 1.07812 22.3781 1.07812 21.7079V17.4914C1.07812 17.354 1.09926 17.2252 1.13773 17.1068C0.407964 15.5572 0 13.8263 0 12C0 5.37258 5.37258 0 12 0C18.6274 0 24 5.37258 24 12ZM7.14617 8.89893C6.40151 8.89893 5.79785 9.50259 5.79785 10.2472V14.0225C5.79785 14.7672 6.40151 15.3708 7.14617 15.3708C7.89082 15.3708 8.49448 14.7672 8.49448 14.0225V10.2472C8.49448 9.50259 7.89082 8.89893 7.14617 8.89893ZM10.6509 8.35961C10.6509 7.61495 11.2545 7.01129 11.9992 7.01129C12.7438 7.01129 13.3475 7.61495 13.3475 8.35961V15.9102C13.3475 16.6548 12.7438 17.2585 11.9992 17.2585C11.2545 17.2585 10.6509 16.6548 10.6509 15.9102V8.35961ZM16.8537 8.89893C16.109 8.89893 15.5054 9.50259 15.5054 10.2472V14.0225C15.5054 14.7672 16.109 15.3708 16.8537 15.3708C17.5983 15.3708 18.202 14.7672 18.202 14.0225V10.2472C18.202 9.50259 17.5983 8.89893 16.8537 8.89893Z" fill="url(#paint0_linear_185_932)"/>
<defs>
<linearGradient id="paint0_linear_185_932" x1="6.66667" y1="3.73333" x2="21.2" y2="25.4667" gradientUnits="userSpaceOnUse">
<stop stop-color="#7F56D9"/>
<stop offset="1" stop-color="#A194FF"/>
</linearGradient>
</defs>
</svg>
