<svg width="24" height="24" viewBox="0 0 24 24" fill="none" xmlns="http://www.w3.org/2000/svg">
<path d="M10.0469 4.74414C10.0469 4.38607 10.1348 4.05729 10.3105 3.75781C10.4863 3.46484 10.7207 3.23047 11.0137 3.05469C11.3066 2.87891 11.6354 2.79102 12 2.79102C12.3581 2.79102 12.6836 2.87891 12.9766 3.05469C13.276 3.23047 13.5137 3.46484 13.6895 3.75781C13.8652 4.05729 13.9531 4.38607 13.9531 4.74414C13.9531 5.29753 13.7611 5.76628 13.377 6.15039C12.9993 6.53451 12.5404 6.72656 12 6.72656C11.6354 6.72656 11.3066 6.63542 11.0137 6.45312C10.7207 6.27734 10.4863 6.03971 10.3105 5.74023C10.1348 5.44727 10.0469 5.11523 10.0469 4.74414ZM10.0469 12C10.0469 11.6419 10.1348 11.3132 10.3105 11.0137C10.4863 10.7207 10.7207 10.4863 11.0137 10.3105C11.3066 10.1413 11.6354 10.0566 12 10.0566C12.3581 10.0566 12.6836 10.1413 12.9766 10.3105C13.276 10.4863 13.5137 10.7207 13.6895 11.0137C13.8652 11.3132 13.9531 11.6419 13.9531 12C13.9531 12.5404 13.7611 12.9993 13.377 13.377C12.9993 13.7611 12.5404 13.9531 12 13.9531C11.6354 13.9531 11.3066 13.8652 11.0137 13.6895C10.7207 13.5137 10.4863 13.2793 10.3105 12.9863C10.1348 12.6934 10.0469 12.3646 10.0469 12ZM10.0469 19.2559C10.0469 18.8913 10.1348 18.5592 10.3105 18.2598C10.4863 17.9603 10.7207 17.7227 11.0137 17.5469C11.3066 17.3711 11.6354 17.2832 12 17.2832C12.3581 17.2832 12.6836 17.3711 12.9766 17.5469C13.276 17.7227 13.5137 17.9603 13.6895 18.2598C13.8652 18.5592 13.9531 18.8913 13.9531 19.2559C13.9531 19.7962 13.7611 20.2552 13.377 20.6328C12.9993 21.0169 12.5404 21.209 12 21.209C11.6354 21.209 11.3066 21.1211 11.0137 20.9453C10.7207 20.7695 10.4863 20.5319 10.3105 20.2324C10.1348 19.9395 10.0469 19.6139 10.0469 19.2559Z" fill="#252B37"/>
</svg>
