<svg width="128" height="42" viewBox="0 0 128 42" fill="none" xmlns="http://www.w3.org/2000/svg">
<rect x="0.5" width="127" height="42" rx="21" fill="url(#paint0_linear_258_246)"/>
<path d="M27.2402 12.9414C28.5098 12.9414 29.6523 13.1432 30.668 13.5469C31.6836 13.9505 32.4811 14.5234 33.0605 15.2656C33.64 16.0013 33.9329 16.8477 33.9395 17.8047C33.9329 18.6771 33.6986 19.4583 33.2363 20.1484C32.7741 20.8385 32.1296 21.3984 31.3027 21.8281C30.4824 22.2513 29.5384 22.5247 28.4707 22.6484V25.6758H35.4043V27.7266H19.1348V25.6758H25.9902V22.6387C24.929 22.5215 23.9883 22.248 23.168 21.8184C22.3477 21.3887 21.7064 20.832 21.2441 20.1484C20.7884 19.4583 20.5605 18.6771 20.5605 17.8047C20.5605 16.8477 20.847 16.0013 21.4199 15.2656C21.9993 14.5234 22.7969 13.9505 23.8125 13.5469C24.8281 13.1432 25.9707 12.9414 27.2402 12.9414ZM27.2402 14.9336C26.4134 14.9336 25.681 15.0508 25.043 15.2852C24.4049 15.513 23.9069 15.8451 23.5488 16.2812C23.1973 16.7174 23.0215 17.2253 23.0215 17.8047C23.0215 18.4167 23.1973 18.944 23.5488 19.3867C23.9069 19.8229 24.4017 20.1582 25.0332 20.3926C25.6712 20.6204 26.4069 20.7344 27.2402 20.7344C28.0801 20.7344 28.8158 20.6204 29.4473 20.3926C30.0853 20.1647 30.5801 19.8294 30.9316 19.3867C31.2897 18.944 31.472 18.4167 31.4785 17.8047C31.472 17.2188 31.2897 16.7109 30.9316 16.2812C30.5801 15.8451 30.0853 15.513 29.4473 15.2852C28.8092 15.0508 28.0736 14.9336 27.2402 14.9336ZM50.7449 17.5898H38.3816V12.2383H40.8621V15.6172H50.7449V17.5898ZM52.6199 20.7539H36.3504V18.7812H52.6199V20.7539ZM50.6668 26.5547H40.7449V27.6875H51.2137V29.6016H38.2449V24.7578H48.1863V23.7422H38.2059V21.8281H50.6668V26.5547ZM59.3668 13.2148C60.2913 13.2083 61.1279 13.3939 61.8766 13.7715C62.6318 14.1426 63.221 14.6602 63.6441 15.3242C64.0738 15.9883 64.2887 16.737 64.2887 17.5703C64.2887 18.4102 64.0738 19.1621 63.6441 19.8262C63.221 20.4902 62.635 21.0111 61.8863 21.3887C61.1376 21.7598 60.2978 21.9453 59.3668 21.9453C58.4358 21.9453 57.5927 21.7598 56.8375 21.3887C56.0888 21.0111 55.4996 20.4902 55.0699 19.8262C54.6402 19.1621 54.4254 18.4102 54.4254 17.5703C54.4254 16.737 54.6402 15.9883 55.0699 15.3242C55.4996 14.6602 56.0921 14.1426 56.8473 13.7715C57.6025 13.3939 58.4423 13.2083 59.3668 13.2148ZM59.3668 15.3633C58.898 15.3633 58.4749 15.4512 58.0973 15.627C57.7197 15.8027 57.4234 16.0599 57.2086 16.3984C57.0003 16.7305 56.8994 17.1211 56.9059 17.5703C56.8994 18.026 57.0003 18.4199 57.2086 18.752C57.4234 19.084 57.7164 19.3379 58.0875 19.5137C58.4651 19.6895 58.8915 19.7773 59.3668 19.7773C59.8421 19.7773 60.2652 19.6895 60.6363 19.5137C61.0139 19.3379 61.3102 19.084 61.525 18.752C61.7464 18.4199 61.8603 18.026 61.8668 17.5703C61.8603 17.1146 61.7496 16.7207 61.5348 16.3887C61.3199 16.0566 61.0237 15.8027 60.6461 15.627C60.2685 15.4512 59.8421 15.3633 59.3668 15.3633ZM68.5465 29.8359H66.066V12.0234H68.5465V29.8359ZM54.6598 24.1719C58.8329 24.1719 62.2965 23.9831 65.0504 23.6055L65.2457 25.4023C63.5009 25.7409 61.7203 25.959 59.9039 26.0566C58.0875 26.1543 56.1116 26.2031 53.9762 26.2031L53.6832 24.1719H54.6598ZM90.2629 21.1445H87.7824V12.0234H90.2629V21.1445ZM90.2824 26.5938H80.8293V27.7656H90.7707V29.6797H78.3879V24.8164H87.802V23.7422H78.3488V21.8477H90.2824V26.5938ZM85.9074 14.8359H82.3527C82.4113 15.4479 82.6034 16.0306 82.9289 16.584C83.2609 17.1374 83.7329 17.6289 84.3449 18.0586C84.9634 18.4883 85.7121 18.8203 86.591 19.0547L85.3996 20.9688C84.397 20.6953 83.5344 20.2786 82.8117 19.7188C82.0891 19.1523 81.5227 18.4785 81.1125 17.6973C80.6958 18.5697 80.1066 19.3216 79.3449 19.9531C78.5897 20.5781 77.6783 21.0404 76.6105 21.3398L75.4777 19.3672C76.3697 19.1198 77.1281 18.765 77.7531 18.3027C78.3781 17.834 78.8566 17.3034 79.1887 16.7109C79.5207 16.112 79.716 15.487 79.7746 14.8359H76.1418V12.8438H85.9074V14.8359ZM108.885 22.7852H102.186V25.8516H99.7246V22.7852H92.6152V20.8125H108.885V22.7852ZM106.795 19.3477H94.6465V12.8047H106.795V19.3477ZM97.0879 17.4141H104.354V14.7383H97.0879V17.4141ZM107.088 29.4844H94.5293V24.3086H97.0098V27.4922H107.088V29.4844Z" fill="white"/>
<defs>
<linearGradient id="paint0_linear_258_246" x1="35.7778" y1="6.53333" x2="47.3824" y2="59.0079" gradientUnits="userSpaceOnUse">
<stop stop-color="#7F56D9"/>
<stop offset="1" stop-color="#A194FF"/>
</linearGradient>
</defs>
</svg>
